<?xml version="1.0" encoding="utf-8"?>
<!-- Generator: Adobe Illustrator 26.5.0, SVG Export Plug-In . SVG Version: 6.00 Build 0)  -->
<svg version="1.1" id="Layer_1" xmlns="http://www.w3.org/2000/svg" xmlns:xlink="http://www.w3.org/1999/xlink" x="0px" y="0px"
	 viewBox="0 0 668.13 191.44" style="enable-background:new 0 0 668.13 191.44;" xml:space="preserve">
<style type="text/css">
	.st0{fill:#F3EFF5;}
	.st1{fill:#8E936D;}
	.st2{fill:#493B2A;}
	.st3{font-family:'TheSeasons-Bold';}
	.st4{font-size:82.5796px;}
	.st5{font-family:'JosefinSans-Light';}
	.st6{font-size:110.1062px;}
</style>
<g>
	<rect x="8.84" y="8.25" class="st0" width="94.41" height="152.47"/>
	<rect x="12.88" y="12.37" class="st1" width="86.33" height="143.92"/>
	<path class="st2" d="M50.53,28.09c0.23-0.09,0.42-0.26,0.53-0.48c0.35-0.73,1.22-2.41,1.85-2.62c0.8-0.27,0.6-1.27,2.68-1.01
		c2.07,0.27,3.15,2.28,3.15,2.62c0,0.34-0.27,1.27,0.74,1.41s2.14-0.07,3.48,1.68c1.34,1.74,4.75,5.3,5.89,7.24
		c1.14,1.94,1.61,1.54,2.14,3.69c0.54,2.15,2.81,3.29,3.88,6.77c1.07,3.49,6.62,5.63,5.22,18.11s-0.67,10.66-2.01,17.17
		s-1.74,27.9-1.27,31.32s-0.8,11.13,0.33,13.08c1.04,1.78-0.38,7.32-0.63,8.25c-0.02,0.09-0.03,0.18-0.03,0.27
		c0.01,0.59,0.03,2.99-0.67,3.76c-0.8,0.87-5.09,6.24-15.19,4.96c-3.81-0.6-3.75-2.41-2.28-3.29c1.47-0.87,2.68-2.55,3.08-2.55
		c0.36,0,0.73-1.32,2.29-2.07c0.43-0.21,0.66-0.69,0.52-1.14c-0.6-2.04-3.5-6.47-3.73-6.82c-0.01-0.02-0.02-0.03-0.03-0.05
		c-0.25-0.44-3.86-6.77-3.73-7.42c0.13-0.67-6.83,3.42-8.23,10.26c-1.41,6.84-2.28,10.4-5.82,12.01s-9.64,1.14-11.91,0.87
		c-2.25-0.26,0.01-3.28,2.77-4.06c0.07-0.02,0.14-0.05,0.2-0.08c1.64-0.91,1.11-1.5,3.42-2.44c0.36-0.15,0.6-0.49,0.6-0.88
		c0.01-2.27-1.59-8.58-1.65-9.16c-0.07-0.67-0.67-15.96,4.55-23.07s2.43-15,1.07-14.96c-2.26,0.07-2.74,2.73-3.68,3.42
		c-0.79,0.59-3.35-3.29-3.75-4.29c-0.4-1.01-2.76-6.84,1.52-11.06c4.25-4.19,2-1.46,6.01-5.33c0.07-0.06,0.13-0.14,0.17-0.22
		c1.2-2.11-0.4-4.27-0.14-6.05c0.27-1.81,3.61-8.79,5.69-11.54s2.88-5.97,0-7.38c-2.88-1.41-4.22-1.54-5.02-1.54
		s-4.88-0.27-5.62-0.54c-0.74-0.27-3.41-2.35-3.41-2.82s-0.87-3.15-0.2-3.69s4.42-1.14,5.82-2.28c1.41-1.14,2.28-1.81,2.88-2.35
		c0.6-0.54-0.2-1.94,5.22-4.63C49.6,28.02,48.87,28.71,50.53,28.09z"/>
	<g>
		<path class="st1" d="M41.48,36.47c0,0,0-1.21,1.08-1.45c1.08-0.23,1.42-0.04,1.42-0.04s-0.06,1.11-0.91,1.34
			C42.23,36.56,42.2,36.6,41.48,36.47z"/>
	</g>
	<text transform="matrix(1 0 0 1 118.1934 66.3997)"><tspan x="0" y="0" class="st3 st4">SAMMAMISH</tspan><tspan x="0" y="94.38" class="st5 st6">Hiking Co.</tspan></text>
</g>
</svg>
