<?xml version="1.0" encoding="UTF-8"?>
<svg id="Layer_1" data-name="Layer 1" xmlns="http://www.w3.org/2000/svg" viewBox="0 0 784.75 133.11">
  <defs>
    <style>
      .cls-1 {
        fill: #f3eae1;
      }
    </style>
  </defs>
  <g>
    <path class="cls-1" d="M215.68,1.51c-7.06,.5-13.61,1.01-19.83,1.01-4.54,0-9.41-.17-13.95-.67-1.01,0-2.52,.34-3.19,1.68l-48.57,85.04L111.14,3.03c-.5-1.01-1.85-1.68-3.19-1.51-5.55,.5-10.92,.84-16.13,.84-9.92,0-18.82-.84-25.88-1.51-4.71-.5-8.57-.84-11.26-.84-6.96,0-14.03,.87-20.84,2.51-4.4,1.34-8.55,3.24-12.61,5.58-1.58,.91-2.97,2.04-4.37,3.1-.18,.17-.37,.33-.56,.48-5.38,5.79-9.22,13.63-11.43,20.36-1.65,5.03-2.93,10.27-3.91,15.6-.03,4.75-.56,9.52-.68,14.27-.13,4.98,.17,10.06-.26,15.03,.07,.05,.13,.11,.2,.16,.13-10.09,1.16-20.13,3.63-30.09C7.8,24.15,31.31,7.23,54,7.23s28.07,8.74,26.89,16.97c-1.68,11.09-5.04,31.26-7.06,42.52-2.02,11.26-5.88,31.76-7.9,41.51-1.85,8.23-6.72,14.62-15.97,14.62-1.34,0-2.02,.5-2.18,1.85-.17,1.34-.67,2.86-.84,4.2-.17,1.01,.5,1.34,1.01,1.34,6.22-.5,13.11-.84,19.16-.84s12.77,.34,18.82,.84c1.01-.17,1.85-.67,2.02-1.85,.17-1.34,.67-2.69,.84-4.03,.17-1.01-.17-1.51-1.18-1.51-9.08,0-11.43-4.03-11.43-9.75,0-1.68,.17-3.87,.5-5.55,.84-6.56,3.19-20.17,6.55-39.33,2.18-12.27,5.04-26.89,7.39-38.15l1.68-7.73,1.34-7.06,25.88,112.27h1.34c19.33-34.79,43.53-77.48,62.86-112.27l-1.18,8.07c-1.51,10.76-5.04,30.92-6.39,38.15l-8.74,46.72c-1.68,8.57-4.37,14.62-11.93,14.62-1.34,0-2.02,.5-2.19,1.85-.17,1.34-.67,2.86-.84,4.2-.17,1.01,.5,1.34,1.01,1.34,6.39-.5,13.28-.84,19.5-.84s12.94,.34,19.16,.84c1.01-.17,1.85-.67,2.02-1.85,.17-1.34,.67-2.69,.84-4.03,.17-1.01-.17-1.51-1.18-1.51-6.05,0-7.9-3.53-7.9-8.91,0-2.19,.34-4.03,.67-6.22,1.18-8.07,3.53-22.02,5.38-32.44,.67-3.36,1.01-6.55,1.51-9.24,1.51-8.74,4.2-23.36,6.39-34.12l1.68-8.4c1.68-8.57,4.2-14.62,11.93-14.62,1.18,0,2.02-1.01,2.35-2.02l.67-4.2c.17-.84,0-1.18-.84-1.18Z"/>
    <path class="cls-1" d="M279.37,50.42c.84,8.74,1.51,17.31,2.52,26.05l4.03,33.78c1.18,8.91,4.87,12.61,10.76,12.61,.84,0,1.01,.84,1.01,1.34l-1.01,4.03c-.34,1.18-1.18,1.85-2.19,2.02-5.71-.34-12.94-.67-20-.67-5.38,0-10.42,.67-15.13,.67-1.18,0-1.51-.84-1.34-1.85l.84-3.53c.34-1.34,1.01-2.02,2.35-2.02,5.38,0,6.55-2.86,6.55-7.23,0-1.68-.17-3.36-.34-5.38,0-.67-.17-1.51-.17-2.35l-.5-6.72c-.34-3.03-2.02-4.87-5.21-4.87h-22.86c-2.69,0-5.04,2.02-6.22,4.03-1.18,2.86-3.03,6.72-4.37,9.58-1.18,2.35-1.68,4.71-1.68,6.39,0,4.37,2.69,6.55,8.91,6.55,.84,0,1.01,.84,1.01,1.34l-1.01,4.03c-.34,1.18-1.18,1.85-2.19,2.02-5.71-.5-11.6-.84-16.97-.84s-11.43,.34-17.14,.84c-.5,0-1.18-.34-.84-1.34l1.01-4.03c.34-1.34,1.01-2.02,2.35-2.02,7.73,0,13.61-7.39,17.65-15.13l31.43-64.87c1.68-4.37,1.18-7.73-3.87-7.73-.5,0-1.18-.5-1.18-1.34l1.18-3.87c.5-1.34,1.01-2.02,2.02-2.19,3.7,.34,9.08,.5,13.78,.5,5.38,0,10.76-.17,12.94-.5,.84,0,1.51,1.01,1.85,1.85l2.02,20.84Zm-17.65-11.26l-20.17,43.19c-1.85,3.87-1.01,5.38,3.36,5.38h15.8c3.7,0,5.04-1.51,4.87-5.21l-2.02-26.89-1.85-16.47Z"/>
    <path class="cls-1" d="M312.15,27.73c1.34,0,2.86,0,4.54,.17,9.58,.5,21.51,1.18,31.09,1.18,10.76,0,24.03-.67,36.97-1.34,1.34-.17,2.52,.84,3.03,1.85l7.23,26.22c.17,1.34-2.02,2.18-4.2,2.18-2.02,0-3.53-.67-4.37-2.35-5.21-10.42-10.42-20.67-19.83-20-6.56,.5-9.24,6.89-10.92,14.45-2.69,12.1-8.57,44.7-10.25,57.65-.34,2.18-.67,4.03-.67,6.22,0,5.38,1.85,8.91,7.9,8.91,1.01,0,1.34,.5,1.18,1.51-.17,1.34-.67,2.69-.84,4.03-.17,1.18-1.01,1.68-2.02,1.85-6.05-.5-12.6-.84-18.82-.84s-12.94,.34-19.16,.84c-.5,0-1.18-.34-1.01-1.34,.17-1.34,.67-2.86,.84-4.2,.17-1.35,.84-1.85,2.18-1.85,7.23,0,10.25-6.55,11.93-14.62,2.86-12.61,8.57-45.71,10.25-57.64v.17c.34-2.18,.5-4.03,.5-5.88,0-5.88-2.02-9.24-8.57-9.24-8.74,0-17.81,10.25-22.19,19.83-.84,1.85-3.19,2.35-5.04,2.35-2.18,0-4.03-.67-3.7-2.02l10.59-26.05c.67-1.51,1.68-2.18,3.19-2.02h.17Z"/>
    <path class="cls-1" d="M402.06,27.73c1.34,0,2.86,0,4.54,.17,9.58,.5,21.51,1.18,31.09,1.18,10.76,0,24.03-.67,36.97-1.34,1.34-.17,2.52,.84,3.03,1.85l7.23,26.22c.17,1.34-2.02,2.18-4.2,2.18-2.02,0-3.53-.67-4.37-2.35-5.21-10.42-10.42-20.67-19.83-20-6.56,.5-9.24,6.89-10.92,14.45-2.69,12.1-8.57,44.7-10.25,57.65-.34,2.18-.67,4.03-.67,6.22,0,5.38,1.85,8.91,7.9,8.91,1.01,0,1.34,.5,1.18,1.51-.17,1.34-.67,2.69-.84,4.03-.17,1.18-1.01,1.68-2.02,1.85-6.05-.5-12.6-.84-18.82-.84s-12.94,.34-19.16,.84c-.5,0-1.18-.34-1.01-1.34,.17-1.34,.67-2.86,.84-4.2,.17-1.35,.84-1.85,2.18-1.85,7.23,0,10.25-6.55,11.93-14.62,2.86-12.61,8.57-45.71,10.25-57.64v.17c.34-2.18,.5-4.03,.5-5.88,0-5.88-2.02-9.24-8.57-9.24-8.74,0-17.81,10.25-22.19,19.83-.84,1.85-3.19,2.35-5.04,2.35-2.18,0-4.03-.67-3.7-2.02l10.59-26.05c.67-1.51,1.68-2.18,3.19-2.02h.17Z"/>
    <path class="cls-1" d="M542.73,26.05c24.71,0,43.86,15.8,43.86,45.04,0,31.43-24.2,62.02-59.83,62.02-25.88,0-44.54-15.97-44.54-45.04,0-31.76,24.54-62.01,60.5-62.01Zm-40.67,66.05c0,18.15,7.23,33.28,25.04,33.28,26.22,0,39.49-35.13,39.49-58.82,0-18.32-7.39-33.11-24.71-33.11-26.38,0-39.83,35.29-39.83,58.65Z"/>
    <path class="cls-1" d="M657.35,129.58h-3.36c-1.51,0-2.35-.34-3.03-1.68-.84-3.19-19.66-59.33-31.76-86.38-4.2,18.15-9.92,53.95-11.6,66.22-.17,1.85-.5,6.05-.5,5.55,0,5.71,2.35,9.58,11.76,9.58,1.01,0,1.34,.5,1.18,1.51-.17,1.34-.67,2.69-.84,4.03-.17,1.18-1.01,1.68-2.02,1.85-6.05-.5-12.61-.84-18.82-.84s-12.94,.34-19.16,.84c-.5,0-1.18-.34-1.01-1.34,.17-1.34,.67-2.86,.84-4.2,.17-1.35,.84-1.85,2.18-1.85,9.41,0,14.12-6.05,15.97-14.62,2.69-11.93,8.4-45.71,10.08-57.98,.17-1.68,.34-3.36,.34-5.04,0-6.05-2.18-10.08-11.6-10.08-.5,0-1.34-.17-1.18-1.34,.17-1.34,.67-2.86,.84-4.2,.17-1.18,1.01-1.68,2.02-1.85,3.03,.34,10.76,.84,18.82,.84,5.38,0,11.26-.17,15.97-.84,2.02,0,3.03,.5,3.53,1.85l26.22,71.76c2.52-13.44,7.56-42.52,8.74-51.09v.17c.34-1.85,.5-3.7,.5-5.38,0-6.05-2.52-9.92-11.76-9.92-.5,0-1.34-.17-1.18-1.34,.17-1.34,.67-2.86,.84-4.2,.17-1.18,1.01-1.68,2.02-1.85,5.71,.67,12.27,.84,18.49,.84s12.94-.17,19.5-.84c.67,0,1.18,.5,1.01,1.51-.17,1.34-.67,2.69-.84,4.03-.17,1.34-.84,1.85-2.18,1.85-9.58,0-14.29,6.05-15.97,14.62-5.21,22.02-10.42,56.13-13.28,77.98-.5,1.68-2.02,1.68-10.76,1.85Z"/>
    <path class="cls-1" d="M689.45,128.9l1.01-4.54c.34-1.18,.84-1.51,2.18-1.51,7.23,0,10.08-7.39,11.93-15.13,2.69-12.1,8.23-45.04,9.92-56.97,.34-2.02,.5-4.2,.5-6.05,0-5.55-1.68-9.24-7.73-9.24-.5,0-1.34-.17-1.18-1.34l.84-4.54c.17-1.18,1.18-1.68,2.18-1.85,10.92,.5,21.34,.67,31.93,.67s21.01-.17,32.1-.67c1.68-.17,2.69,.5,3.19,1.85l8.4,26.22c.17,1.34-1.01,2.02-2.69,2.02s-3.36-.34-4.37-2.18c-5.38-9.75-14.45-20.17-28.57-20.17h-4.2c-7.39,0-10.08,6.72-11.93,14.62-1.18,5.38-3.19,15.29-3.87,19.66-.67,3.53,.5,5.38,4.37,5.38h9.92c3.87,0,7.73-3.19,8.57-6.55l.67-2.69c.34-1.18,1.01-2.02,2.18-2.02h6.22c.5,0,1.18,.34,1.18,1.18-2.35,8.4-4.71,20.67-5.04,28.74-.34,1.18-1.18,1.68-2.18,1.68h-6.22c-1.01,0-1.34-.34-1.18-1.35l.5-3.03c.67-4.03-1.68-7.9-7.06-7.9h-9.41c-3.36,0-5.04,1.51-5.55,4.71-.5,2.35-2.52,14.96-3.03,19.16-1.18,8.57,.17,15.29,14.12,15.29h5.21c13.28,0,26.38-14.12,32.27-24.54,.84-1.51,2.35-2.86,5.21-2.86,2.02,0,2.18,1.01,1.85,1.68l-12.94,31.6c-.67,1.34-1.85,2.02-3.36,2.02-13.11-.5-25.88-.84-38.65-.84-11.76,0-23.7,.34-36.13,.84-.5,0-1.51-.17-1.18-1.34Z"/>
  </g>
  <path class="cls-1" d="M.53,77.03c31.2-8.78,52.31-29.31,49.59-63.3-.32-3.32-.73-6.11-.06-9.48,.26-1.49-.19-5.26,1.78-2.14,1.29,1.92,2.76,3.83,3.39,6.08,.83,3.79,1.05,7.95,.99,11.84-.63,12.39-5.54,24.45-12.96,34.19-10.47,12.89-26.93,19.51-42.73,22.82H.53Z"/>
  <path class="cls-1" d="M42.18,15.94c-12.54,14.73-24.96,29.79-32.1,47.98C12.64,45.25,27.25,26.83,42.18,15.94h0Z"/>
</svg>